#define circle_width 19
#define circle_height 19
#define circle_x_hot 10
#define circle_y_hot 10
static unsigned char circle_bits[] = {
  0x80, 0x0f, 0x00, 0xf0, 0x7f, 0x00, 0xf8, 0xff, 0x00, 0xfc, 0xff, 0x01,
  0xfe, 0xff, 0x03, 0xfe, 0xff, 0x03, 0xfe, 0xff, 0x03, 0xff, 0xff, 0x07,
  0xff, 0xff, 0x07, 0xff, 0xff, 0x07, 0xff, 0xff, 0x07, 0xff, 0xff, 0x07,
  0xfe, 0xff, 0x03, 0xfe, 0xff, 0x03, 0xfe, 0xff, 0x03, 0xfc, 0xff, 0x01,
  0xf8, 0xff, 0x00, 0xf0, 0x7f, 0x00, 0x80, 0x0f, 0x00, };
