#define O_width 19
#define O_height 19
#define O_x_hot 10
#define O_y_hot 10
static char O_bits[] = {
 0x80,0x0f,0xf8,0xf0,0x7f,0xf8,0xf8,0xff,0xf8,0xfc,0xff,0xf9,0xfe,0xff,0xfb,
 0x7e,0xf0,0xfb,0x3e,0xe0,0xfb,0x1f,0xc0,0xff,0x1f,0xc0,0xff,0x1f,0xc0,0xff,
 0x1f,0xc0,0xff,0x1f,0xc0,0xff,0x3e,0xe0,0xfb,0x7e,0xf0,0xfb,0xfe,0xff,0xfb,
 0xfc,0xff,0xf9,0xf8,0xff,0xf8,0xf0,0x7f,0xf8,0x80,0x0f,0xf8};
