#define plus_width 19
#define plus_height 19
#define plus_x_hot 10
#define plus_y_hot 10
static unsigned char plus_bits[] = {
  0x80, 0x0f, 0x00, 0x80, 0x0f, 0x00, 0x80, 0x0f, 0x00, 0x80, 0x0f, 0x00,
  0x80, 0x0f, 0x00, 0x80, 0x0f, 0x00, 0x80, 0x0f, 0x00, 0xff, 0xff, 0x07,
  0xff, 0xff, 0x07, 0xff, 0xff, 0x07, 0xff, 0xff, 0x07, 0xff, 0xff, 0x07,
  0x80, 0x0f, 0x00, 0x80, 0x0f, 0x00, 0x80, 0x0f, 0x00, 0x80, 0x0f, 0x00,
  0x80, 0x0f, 0x00, 0x80, 0x0f, 0x00, 0x80, 0x0f, 0x00, };
