#define X_width 19
#define X_height 19
#define X_x_hot 10
#define X_y_hot 10
static char X_bits[] = {
 0x18,0xc0,0xf8,0x3c,0xe0,0xf9,0x7e,0xf0,0xfb,0xff,0xf8,0xff,0xff,0xfd,0xff,
 0xfe,0xff,0xfb,0xfc,0xff,0xf9,0xf8,0xff,0xf8,0xf0,0x7f,0xf8,0xe0,0x3f,0xf8,
 0xf0,0x7f,0xf8,0xf8,0xff,0xf8,0xfc,0xff,0xf9,0xfe,0xff,0xfb,0xff,0xfd,0xff,
 0xff,0xf8,0xff,0x7e,0xf0,0xfb,0x3c,0xe0,0xf9,0x18,0xc0,0xf8};
